<?xml version="1.0" encoding="UTF-8"?>
<svg width="257px" height="239px" viewBox="0 0 257 239" version="1.1" xmlns="http://www.w3.org/2000/svg" xmlns:xlink="http://www.w3.org/1999/xlink">
    <!-- Generator: Sketch 52.2 (67145) - http://www.bohemiancoding.com/sketch -->
    <title>metamask-fox-and-wordmark</title>
    <desc>Created with Sketch.</desc>
    <g id="Page-1" stroke="none" stroke-width="1" fill="none" fill-rule="evenodd" stroke-linecap="round" stroke-linejoin="round">
        <g id="metamask-fox-and-wordmark" transform="translate(0.000000, 1.000000)">
            <polygon id="Path" stroke="#E2761B" fill="#E2761B" points="243 0.4 143.4 74.3 161.9 30.7"></polygon>
            <g id="Group" transform="translate(2.000000, 0.000000)" fill="#E4761B" stroke="#E4761B">
                <polygon id="Path" points="11.3 0.4 110 75 92.4 30.7"></polygon>
                <polygon id="Path" points="205.2 171.7 178.7 212.3 235.4 227.9 251.6 172.6"></polygon>
                <polygon id="Path" points="0.8 172.6 16.9 227.9 73.6 212.3 47.2 171.7"></polygon>
                <polygon id="Path" points="70.5 103.1 54.7 127 110.9 129.5 109 69"></polygon>
                <polygon id="Path" points="181.8 103.1 142.8 68.2 141.4 129.5 197.6 127"></polygon>
                <polygon id="Path" points="73.6 212.3 107.5 195.8 78.3 173"></polygon>
                <polygon id="Path" points="144.8 195.8 178.7 212.3 174 173"></polygon>
            </g>
            <g id="Group" transform="translate(75.000000, 195.000000)" fill="#D7C1B3" stroke="#D7C1B3">
                <polygon id="Path" points="105.7 17.3 71.8 0.8 74.5 22.9 74.2 32.2"></polygon>
                <polygon id="Path" points="0.6 17.3 32.1 32.2 31.9 22.9 34.5 0.8"></polygon>
            </g>
            <polygon id="Path" stroke="#233447" fill="#233447" points="107.7 158.4 79.5 150.1 99.4 141"></polygon>
            <polygon id="Path" stroke="#233447" fill="#233447" points="148.6 158.4 156.9 141 176.9 150.1"></polygon>
            <g id="Group" transform="translate(49.000000, 127.000000)" fill="#CD6116" stroke="#CD6116">
                <polygon id="Path" points="26.6 85.3 31.5 44.7 0.2 45.6"></polygon>
                <polygon id="Path" points="126.8 44.7 131.7 85.3 158.2 45.6"></polygon>
                <polygon id="Path" points="150.6 0 94.4 2.5 99.6 31.4 107.9 14 127.9 23.1"></polygon>
                <polygon id="Path" points="30.5 23.1 50.4 14 58.7 31.4 63.9 2.5 7.7 0"></polygon>
            </g>
            <g id="Group" transform="translate(56.000000, 127.000000)" fill="#E4751F" stroke="#E4751F">
                <polygon id="Path" points="0.7 0 24.3 46 23.5 23.1"></polygon>
                <polygon id="Path" points="120.9 23.1 120 46 143.6 0"></polygon>
                <polygon id="Path" points="56.9 2.5 51.7 31.4 58.3 65.5 59.8 20.6"></polygon>
                <polygon id="Path" points="87.4 2.5 84.8 20.5 86 65.5 92.6 31.4"></polygon>
            </g>
            <polygon id="Path" stroke="#F6851B" fill="#F6851B" points="148.6 158.4 142 192.5 146.8 195.8 176 173 176.9 150.1"></polygon>
            <polygon id="Path" stroke="#F6851B" fill="#F6851B" points="79.5 150.1 80.3 173 109.5 195.8 114.3 192.5 107.7 158.4"></polygon>
            <polygon id="Path" stroke="#C0AD9E" fill="#C0AD9E" points="149.2 227.2 149.5 217.9 147 215.7 109.3 215.7 106.9 217.9 107.1 227.2 75.6 212.3 86.6 221.3 109 236.8 147.3 236.8 169.7 221.3 180.7 212.3"></polygon>
            <polygon id="Path" stroke="#161616" fill="#161616" points="146.8 195.8 142 192.5 114.3 192.5 109.5 195.8 106.9 217.9 109.3 215.7 147 215.7 149.5 217.9"></polygon>
            <g id="Group" fill="#763D16" stroke="#763D16">
                <polygon id="Path" points="247.2 79.1 255.6 38.3 243 0.4 146.8 71.8 183.8 103.1 236.1 118.4 247.6 104.9 242.6 101.3 250.6 94 244.5 89.2 252.5 83.1"></polygon>
                <polygon id="Path" points="0.7 38.3 9.2 79.1 3.8 83.1 11.8 89.2 5.7 94 13.7 101.3 8.7 104.9 20.2 118.4 72.5 103.1 109.5 71.8 13.3 0.4"></polygon>
            </g>
            <polygon id="Path" stroke="#F6851B" fill="#F6851B" points="236.1 118.4 183.8 103.1 199.6 127 176 173 207.2 172.6 253.6 172.6"></polygon>
            <polygon id="Path" stroke="#F6851B" fill="#F6851B" points="72.5 103.1 20.2 118.4 2.8 172.6 49.2 172.6 80.3 173 56.7 127"></polygon>
            <polygon id="Path" stroke="#F6851B" fill="#F6851B" points="143.4 129.5 146.8 71.8 161.9 30.7 94.4 30.7 109.5 71.8 112.9 129.5 114.2 147.7 114.3 192.5 142 192.5 142.1 147.7"></polygon>
        </g>
    </g>
</svg>