<?xml version="1.0" standalone="no"?>
<!DOCTYPE svg PUBLIC "-//W3C//DTD SVG 20010904//EN"
 "http://www.w3.org/TR/2001/REC-SVG-20010904/DTD/svg10.dtd">
<svg version="1.0" xmlns="http://www.w3.org/2000/svg"
 width="700.000000pt" height="700.000000pt" viewBox="0 0 700.000000 700.000000"
 preserveAspectRatio="xMidYMid meet">
<metadata>
Created by potrace 1.11, written by Peter Selinger 2001-2013
</metadata>
<g transform="translate(0.000000,700.000000) scale(0.100000,-0.100000)"
fill="#000000" stroke="none">
<path d="M3368 6996 c-1 -2 -40 -6 -86 -10 -68 -5 -267 -31 -307 -41 -5 -1
-28 -5 -50 -10 -90 -17 -337 -87 -440 -123 -285 -101 -553 -236 -804 -404 -78
-53 -282 -207 -336 -253 -169 -148 -280 -257 -442 -438 -113 -126 -288 -371
-398 -556 -258 -438 -401 -852 -479 -1381 -27 -182 -28 -641 -1 -811 2 -13 6
-45 9 -70 33 -240 100 -495 193 -734 37 -95 161 -353 213 -445 34 -59 209
-322 219 -330 4 -3 29 -34 56 -70 27 -36 52 -67 56 -70 3 -3 25 -27 49 -55
435 -511 1096 -912 1789 -1085 120 -30 309 -66 396 -76 28 -3 61 -8 75 -10
148 -25 707 -25 842 1 12 3 40 7 63 10 193 27 432 84 620 148 395 134 753 333
1100 611 92 75 361 334 431 416 255 300 466 642 603 975 5 11 14 34 21 50 55
133 161 503 184 645 16 95 36 244 43 320 15 164 8 625 -12 740 -2 14 -6 45 -9
70 -11 106 -59 358 -91 475 -9 33 -20 74 -25 90 -100 375 -354 878 -591 1170
-272 333 -536 568 -864 768 -104 63 -251 140 -345 181 -36 16 -78 34 -95 42
-153 66 -482 167 -617 188 -21 3 -57 10 -80 15 -24 6 -65 13 -93 16 -27 4 -57
8 -65 10 -8 2 -46 7 -85 11 -38 3 -83 8 -100 11 -34 5 -541 13 -547 9z m303
-396 c20 -63 63 -196 94 -295 32 -99 67 -211 80 -250 51 -160 87 -271 150
-470 36 -115 72 -228 80 -250 16 -48 129 -398 130 -405 0 -3 10 -34 22 -70 12
-36 53 -166 93 -290 39 -124 77 -243 85 -265 13 -40 63 -198 71 -223 5 -16 10
-13 259 208 158 139 199 176 211 185 10 8 10 17 -1 50 -7 22 -41 126 -75 230
-34 105 -97 298 -140 430 -43 132 -138 422 -210 645 -73 223 -161 492 -196
599 -35 107 -62 196 -60 198 4 4 198 -50 239 -67 12 -5 76 -29 142 -55 66 -25
172 -72 235 -104 l115 -57 22 -70 c12 -38 94 -298 183 -579 184 -585 227 -719
242 -757 l10 -28 51 48 c27 26 57 54 66 62 9 8 46 40 81 70 36 30 67 58 70 61
3 3 30 28 60 55 31 27 75 66 99 87 l43 38 -53 177 c-28 97 -54 184 -56 192
-11 35 186 -197 293 -345 43 -59 102 -148 159 -241 8 -12 34 -58 59 -104 44
-79 55 -110 39 -110 -5 0 -24 -15 -43 -33 -19 -18 -107 -95 -195 -172 -88 -77
-165 -144 -171 -150 -17 -15 -71 -63 -154 -135 -41 -36 -80 -69 -86 -75 -19
-18 -146 -129 -168 -148 -12 -10 -32 -28 -46 -40 -14 -13 -225 -198 -470 -412
-245 -214 -447 -392 -450 -395 -3 -3 -39 -34 -80 -70 -41 -36 -77 -67 -80 -70
-3 -3 -39 -34 -80 -70 -41 -36 -77 -67 -80 -70 -3 -3 -56 -50 -119 -105 -106
-93 -112 -99 -90 -108 13 -5 151 -44 307 -88 155 -44 288 -82 296 -85 7 -3 39
19 72 48 174 154 201 178 225 199 14 13 41 38 60 54 551 486 597 526 639 565
9 8 50 44 91 80 41 35 76 67 79 70 3 3 41 36 85 75 44 38 82 72 85 75 3 3 39
35 80 70 41 36 79 70 85 76 5 5 48 44 95 85 47 40 87 76 90 79 3 3 60 54 126
112 l122 107 11 -27 c17 -44 49 -179 70 -302 26 -145 31 -186 45 -356 l5 -51
-261 -229 c-144 -126 -266 -233 -272 -239 -6 -5 -45 -39 -86 -75 -41 -36 -77
-67 -80 -70 -3 -3 -115 -102 -250 -220 -135 -118 -261 -229 -280 -246 -19 -17
-48 -43 -65 -57 -16 -14 -28 -27 -25 -30 4 -4 192 -59 295 -87 17 -4 89 -24
160 -45 174 -50 171 -49 193 -34 17 13 117 99 176 154 12 11 53 47 91 80 64
55 226 199 285 252 45 42 45 39 -22 -182 -72 -238 -194 -503 -344 -746 -56
-90 -223 -323 -243 -339 -3 -3 -26 -30 -51 -60 -50 -63 -155 -173 -250 -264
-421 -405 -944 -696 -1485 -828 -262 -64 -426 -83 -705 -83 -102 0 -223 4
-270 7 -92 8 -241 28 -251 33 -3 2 -28 7 -55 11 -78 10 -273 60 -411 105 -967
314 -1771 1098 -2080 2029 -59 178 -99 349 -127 540 -33 224 -25 645 14 840 5
25 12 63 15 85 17 121 115 437 193 623 38 90 39 92 50 65 16 -41 40 -115 142
-433 50 -157 104 -321 118 -365 l27 -80 305 -87 c327 -94 350 -100 350 -91 0
6 -120 385 -145 458 -7 22 -43 135 -80 250 -37 116 -100 314 -140 440 -155
485 -185 581 -185 595 0 35 426 510 457 510 6 0 25 -46 42 -102 18 -57 59
-184 91 -283 32 -99 88 -274 125 -390 37 -115 86 -271 110 -345 66 -204 201
-625 320 -1000 59 -184 109 -336 110 -338 5 -6 660 -190 663 -187 4 4 -8 43
-118 385 -50 157 -127 398 -171 535 -44 138 -101 313 -125 390 -25 77 -60 187
-79 245 -18 58 -54 168 -78 245 -25 77 -66 205 -92 285 -26 80 -62 192 -80
250 -30 94 -210 657 -220 687 -7 20 293 191 469 267 32 15 60 26 62 26 2 0 12
-28 23 -62 23 -75 95 -298 221 -688 51 -157 93 -289 94 -295 2 -5 6 -17 9 -25
4 -8 45 -136 92 -285 48 -148 95 -295 105 -325 10 -30 52 -163 94 -295 42
-132 83 -258 91 -280 7 -22 46 -141 85 -265 40 -124 82 -256 95 -295 13 -38
53 -163 90 -278 51 -157 70 -205 80 -200 10 6 331 312 442 421 16 16 18 1 -18
112 -16 52 -71 221 -120 375 -50 154 -99 305 -109 335 -10 30 -60 183 -110
340 -224 697 -292 908 -305 945 -7 22 -55 168 -105 325 -50 157 -115 356 -144
443 -29 86 -50 161 -46 166 3 5 25 12 50 16 25 4 65 10 90 15 25 5 91 12 145
16 55 3 101 8 103 9 1 1 53 2 114 1 l112 -1 37 -115z m154 105 c86 -7 109 -10
262 -37 132 -23 162 -37 41 -19 -73 12 -109 17 -183 26 -22 3 -49 7 -60 9 -42
8 -150 20 -158 18 -5 -2 -6 2 -2 7 3 6 11 8 18 6 7 -2 44 -6 82 -10z m-906
-69 c-2 -2 -35 -13 -74 -24 -38 -11 -121 -36 -184 -56 -63 -19 -117 -34 -119
-31 -4 3 231 80 318 104 37 10 66 13 59 7z m-1089 -497 c-14 -11 -32 -26 -40
-32 -8 -7 -53 -41 -100 -77 -47 -35 -87 -66 -90 -69 -11 -13 -89 -71 -95 -71
-10 0 160 138 255 207 82 60 122 84 70 42z"/>
</g>
</svg>
