<?xml version="1.0" standalone="no"?>
<!DOCTYPE svg PUBLIC "-//W3C//DTD SVG 20010904//EN"
 "http://www.w3.org/TR/2001/REC-SVG-20010904/DTD/svg10.dtd">
<svg version="1.0" xmlns="http://www.w3.org/2000/svg"
 width="700.000000pt" height="700.000000pt" viewBox="0 0 700.000000 700.000000"
 preserveAspectRatio="xMidYMid meet">
<metadata>
Created by potrace 1.11, written by Peter Selinger 2001-2013
</metadata>
<g transform="translate(0.000000,700.000000) scale(0.100000,-0.100000)"
fill="#000000" stroke="none">
<path d="M3368 6995 c-1 -1 -41 -6 -88 -9 -47 -3 -94 -8 -106 -10 -12 -2 -45
-7 -74 -11 -29 -4 -62 -9 -74 -11 -364 -69 -648 -165 -961 -324 -402 -206
-696 -425 -1031 -770 -129 -134 -332 -386 -409 -510 -15 -25 -31 -47 -34 -50
-6 -5 -93 -149 -141 -235 -145 -257 -309 -678 -356 -915 -3 -14 -11 -50 -19
-80 -11 -47 -29 -151 -49 -290 -27 -184 -28 -640 -1 -811 2 -13 6 -45 9 -70
36 -259 128 -596 221 -804 102 -231 190 -391 314 -575 46 -69 87 -127 90 -130
4 -3 29 -34 56 -70 27 -36 52 -67 56 -70 4 -3 23 -25 44 -50 144 -175 381
-387 620 -556 393 -278 905 -493 1375 -578 137 -25 143 -26 195 -32 28 -3 56
-7 62 -9 83 -27 676 -26 863 1 274 40 469 85 690 161 727 249 1367 744 1794
1388 96 144 112 171 202 340 162 305 308 758 349 1081 4 27 8 60 11 74 13 72
19 221 19 445 0 254 -7 384 -30 533 -3 17 -8 49 -11 70 -85 555 -313 1113
-633 1547 -335 454 -798 828 -1281 1034 -41 18 -88 39 -105 46 -101 45 -423
145 -545 169 -14 3 -59 12 -100 20 -42 8 -98 18 -125 21 -28 4 -57 8 -65 10
-8 2 -46 7 -85 11 -38 3 -83 8 -100 11 -35 5 -541 13 -547 8z m315 -430 c27
-82 82 -256 124 -385 41 -129 112 -352 158 -495 46 -143 113 -354 150 -470 37
-115 73 -228 80 -250 8 -22 44 -134 80 -250 36 -115 74 -235 85 -265 10 -30
42 -128 70 -218 47 -147 54 -162 68 -150 15 11 170 146 182 158 3 3 61 54 130
114 69 60 131 115 138 121 13 12 18 -5 -133 455 -35 107 -121 371 -190 585
-70 215 -144 442 -165 505 -78 235 -183 556 -191 583 -8 28 -7 28 24 21 55
-11 319 -101 402 -137 44 -18 130 -57 190 -87 l110 -53 17 -51 c9 -28 44 -139
78 -246 34 -107 74 -235 90 -285 16 -49 58 -182 94 -295 160 -506 179 -562
185 -554 5 8 104 96 210 189 212 184 253 226 248 249 -5 23 -91 308 -103 341
-8 23 58 -42 121 -119 22 -27 45 -54 50 -60 15 -16 108 -136 128 -166 92 -132
163 -247 228 -365 l38 -71 -82 -71 c-45 -39 -91 -80 -103 -90 -11 -10 -49 -43
-84 -73 -34 -30 -68 -60 -74 -65 -6 -6 -47 -42 -91 -80 -44 -39 -82 -72 -85
-75 -3 -3 -36 -32 -75 -65 -38 -33 -76 -67 -85 -75 -15 -14 -74 -66 -195 -171
-87 -75 -188 -164 -199 -174 -6 -6 -83 -73 -171 -150 -88 -77 -165 -144 -171
-150 -29 -26 -91 -81 -234 -205 -85 -74 -162 -142 -170 -150 -9 -8 -42 -37
-75 -65 -32 -27 -68 -59 -79 -70 -12 -11 -53 -47 -91 -80 -38 -33 -75 -64 -81
-70 -6 -5 -54 -48 -107 -94 -53 -47 -95 -86 -94 -88 2 -1 144 -43 317 -92 254
-72 317 -87 331 -78 13 10 285 248 333 292 6 6 67 60 136 120 69 60 130 114
136 120 56 51 102 91 174 155 85 74 98 85 200 176 58 51 205 181 224 199 6 6
29 26 51 45 23 19 74 65 115 101 41 36 122 108 180 159 58 51 123 109 145 129
58 52 187 164 207 179 15 12 19 -2 51 -135 51 -219 64 -299 82 -519 l6 -71
-72 -64 c-40 -35 -77 -68 -83 -74 -6 -5 -45 -39 -86 -75 -41 -36 -80 -69 -86
-75 -9 -8 -77 -68 -158 -138 -68 -60 -152 -134 -166 -147 -9 -8 -45 -39 -80
-69 -36 -30 -69 -60 -75 -65 -5 -6 -44 -40 -85 -76 -41 -35 -85 -74 -97 -85
-12 -11 -91 -81 -176 -155 -85 -74 -152 -138 -148 -142 6 -7 180 -60 286 -88
17 -4 97 -26 178 -49 81 -23 156 -40 166 -36 10 3 33 20 52 38 19 18 106 96
194 172 88 77 162 142 165 146 16 17 180 159 185 159 7 0 0 -30 -42 -170 -92
-307 -252 -636 -442 -910 -32 -47 -65 -84 -72 -84 -15 2 -70 17 -229 63 -58
16 -226 64 -375 106 -148 42 -283 81 -300 86 -16 5 -142 41 -280 80 -137 39
-263 74 -280 80 -35 11 -1346 384 -1420 404 -27 7 -90 25 -140 40 -49 15 -112
33 -140 40 -27 8 -88 25 -135 39 -47 14 -110 32 -140 40 -30 8 -174 49 -320
91 -146 42 -290 83 -320 91 -88 24 -159 44 -245 69 -44 13 -138 40 -210 60
-71 20 -168 47 -215 61 -122 36 -131 39 -613 175 l-437 124 4 160 c4 142 27
376 40 415 3 8 7 35 10 59 15 119 114 438 194 629 38 90 39 92 50 65 15 -41
39 -111 152 -463 55 -173 109 -337 118 -365 l17 -50 324 -92 c179 -51 327 -91
329 -88 2 2 -25 95 -61 207 -36 112 -96 298 -132 413 -37 116 -73 228 -80 250
-8 22 -42 128 -76 235 -60 192 -127 402 -175 550 -13 41 -24 81 -24 88 0 29
194 255 355 415 102 102 110 108 116 86 4 -13 30 -94 57 -179 28 -85 69 -213
91 -285 23 -71 59 -184 81 -250 21 -66 71 -221 110 -345 39 -124 75 -236 80
-250 5 -14 41 -126 80 -250 39 -124 95 -299 125 -390 29 -91 77 -239 106 -330
29 -91 53 -166 54 -168 1 -1 74 -23 161 -47 87 -25 182 -52 209 -60 171 -51
290 -81 293 -73 2 5 -11 53 -28 106 -42 124 -62 187 -150 462 -39 124 -110
344 -157 490 -47 146 -103 321 -125 390 -22 69 -62 193 -88 275 -27 83 -83
258 -125 390 -42 132 -122 380 -177 550 -54 171 -103 322 -108 337 -9 27 -6
30 98 91 138 82 404 217 428 217 3 0 32 -86 137 -415 30 -93 116 -359 190
-590 75 -231 156 -485 182 -565 25 -80 57 -176 69 -215 13 -38 58 -176 99
-305 97 -303 251 -781 317 -985 29 -88 57 -175 62 -193 5 -18 13 -32 18 -30 5
2 93 84 196 183 102 99 204 197 226 217 38 35 39 39 30 70 -17 53 -317 985
-382 1183 -32 99 -97 302 -145 450 -127 397 -184 573 -205 635 -10 30 -60 183
-110 340 -50 157 -100 309 -110 338 -10 28 -15 54 -12 56 4 2 25 7 47 10 22 3
51 8 65 11 40 8 99 14 190 21 47 4 86 8 88 9 1 1 53 2 115 1 l112 -1 48 -150z
m-2390 -4136 c501 -143 919 -262 927 -264 8 -2 195 -55 415 -118 220 -63 409
-117 420 -120 11 -3 61 -17 110 -32 50 -15 97 -28 105 -30 8 -2 159 -45 335
-95 176 -51 329 -94 340 -97 11 -3 137 -39 280 -80 143 -42 274 -79 290 -83
53 -13 1058 -300 1108 -316 26 -9 47 -19 46 -22 0 -10 -181 -162 -287 -241
-97 -73 -223 -158 -303 -204 l-46 -27 -89 25 c-49 14 -111 32 -139 40 -27 8
-196 55 -375 106 -179 50 -395 111 -480 136 -85 24 -163 46 -172 48 -15 3
-630 177 -743 210 -77 23 -334 95 -395 111 -72 20 -457 129 -540 154 -36 10
-85 24 -110 30 -25 6 -74 20 -110 31 -76 22 -573 163 -740 209 -63 17 -126 35
-140 40 -14 4 -93 27 -177 50 l-151 43 -55 106 c-94 181 -167 365 -226 567
-22 76 -24 84 -16 84 3 0 416 -117 918 -261z m182 -1319 c77 -21 286 -80 465
-130 179 -50 390 -109 470 -131 80 -22 168 -46 195 -54 28 -8 156 -44 285 -80
129 -36 258 -72 285 -79 28 -8 133 -38 235 -66 102 -28 214 -59 250 -70 36
-10 124 -35 195 -54 232 -64 305 -86 305 -91 0 -2 -28 -8 -62 -14 -35 -6 -74
-13 -88 -16 -14 -3 -45 -8 -70 -11 -25 -3 -54 -8 -65 -10 -94 -19 -517 -26
-665 -11 -632 64 -1224 305 -1725 702 -112 89 -197 169 -170 160 11 -3 83 -24
160 -45z"/>
</g>
</svg>
